<svg xmlns="http://www.w3.org/2000/svg" xmlns:xlink="http://www.w3.org/1999/xlink" width="383.661" height="406" viewBox="0 0 383.661 406">
  <defs>
    <clipPath id="clip-path">
      <rect id="Rectangle_2" data-name="Rectangle 2" width="383.661" height="406"/>
    </clipPath>
  </defs>
  <g id="Group_4" data-name="Group 4" transform="translate(-151 -179.986)">
    <g id="Group_3" data-name="Group 3" transform="translate(151 179.986)" clip-path="url(#clip-path)">
      <path id="Path_14" data-name="Path 14" d="M461.474,0c.558.238,1.108.495,1.674.709a7.952,7.952,0,0,1,5.5,7.725c.069,3.921.031,7.844.031,11.766q0,29.517,0,59.034c0,1.082.02,2.166-.053,3.244a7.892,7.892,0,0,1-7.2,7.506c-4.323.329-7.847-2.1-8.764-6.18a18.566,18.566,0,0,1-.342-4.023c-.019-22.653.094-45.307-.09-67.959-.046-5.713,1.385-9.965,7.214-11.822Z" transform="translate(-268.628 0.003)"/>
      <path id="Path_15" data-name="Path 15" d="M813.558,481.192c-.432.762-.834,1.542-1.3,2.283-1.827,2.907-4.528,4.066-7.9,4.061q-27.093-.037-54.186-.011c-6.021,0-12.042.046-18.061-.032a8.093,8.093,0,0,1-8-5.731,7.65,7.65,0,0,1,2.827-8.831,11.4,11.4,0,0,1,5.658-1.692c11.566-.153,23.135-.078,34.7-.079,11.635,0,23.275.179,34.9-.081,5.321-.119,9.29,1.266,11.35,6.458Z" transform="translate(-429.897 -279.82)"/>
      <path id="Path_16" data-name="Path 16" d="M0,478.876c.216-.566.45-1.126.645-1.7A7.947,7.947,0,0,1,8.7,471.3c7.91-.043,15.819-.021,23.729-.021q24.338,0,48.675,0c3.1,0,5.735.87,7.493,3.593a8.179,8.179,0,0,1-6.137,12.718c-.939.093-1.891.055-2.837.055q-33.87,0-67.74,0c-7.829,0-9.052-.82-11.887-7.958v-.812" transform="translate(0 -279.941)"/>
      <path id="Path_17" data-name="Path 17" d="M336.771,253.843c28.741.514,51.112,10.987,68.944,31.09a94.973,94.973,0,0,1,23.564,50.382c2.852,19.843-1.333,38.322-11.193,55.635-4.514,7.925-10.263,14.9-16.3,21.7-8.755,9.859-14.386,21.276-15.685,34.527a72.891,72.891,0,0,0,.011,11.941c.318,4.731-2.613,8.919-7,9.393-5.031.544-8.784-2.562-9.29-7.676-2.215-22.383,4.859-41.753,19.3-58.6,5.423-6.329,10.906-12.562,15.007-19.879,11.88-21.2,12.809-42.971,3.145-65.134C400.165,300.913,388.99,288,373.32,279.387a71.887,71.887,0,0,0-84.527,10.529c-14.281,13.3-22.906,29.685-25.427,49.083-2.027,15.605,1.677,30.075,9.348,43.668,4.259,7.548,10.033,13.9,15.6,20.448,10.387,12.208,16.976,26.224,18.5,42.282a94.215,94.215,0,0,1-.192,16.392c-.34,4.21-3.858,6.8-8.034,6.766a7.79,7.79,0,0,1-7.929-8.01c-.027-3.78.278-7.573.067-11.34-.751-13.414-6.09-25.036-14.659-35.149-6.216-7.337-12.592-14.5-17.389-22.913-8.16-14.3-12.753-29.613-12.133-46.118.9-23.9,10.018-44.536,26.18-62.035,13.855-15,30.839-24.5,51.063-27.847,4.853-.8,9.807-1,12.978-1.3" transform="translate(-146.42 -150.784)"/>
      <path id="Path_18" data-name="Path 18" d="M718.624,135.3a10.016,10.016,0,0,1-2.89,6.314q-25.608,25.613-51.2,51.239c-3.6,3.6-8.652,3.705-11.961.388-3.225-3.234-3.108-8.466.418-12.01q18.819-18.915,37.709-37.76c4.542-4.545,9.035-9.14,13.647-13.613,3.859-3.742,9.758-3.268,12.526,1.008a23.537,23.537,0,0,1,1.754,4.433" transform="translate(-386.251 -75.634)"/>
      <path id="Path_19" data-name="Path 19" d="M194.218,661.06c.084,2.025-1.214,4.064-3.062,5.909q-20.1,20.071-40.17,40.181c-3.49,3.493-6.963,7-10.478,10.47-3.686,3.636-8.671,3.828-11.972.512-3.263-3.278-3.224-8.443.32-12q25.619-25.747,51.336-51.4a8.02,8.02,0,0,1,9.337-1.8c3.115,1.467,4.66,3.992,4.689,8.132" transform="translate(-74.929 -387.377)"/>
      <path id="Path_20" data-name="Path 20" d="M407.066,921.76c-12.1,0-24.2.039-36.3-.019-5.124-.025-8.495-3.51-8.376-8.412a7.9,7.9,0,0,1,5.983-7.527,18.792,18.792,0,0,1,4.219-.386q34.681-.033,69.363,0a16.76,16.76,0,0,1,3.623.279c4.353.974,6.747,4.488,6.281,9.047a7.76,7.76,0,0,1-7.876,6.991c-12.3.061-24.608.021-36.912.021Z" transform="translate(-215.259 -537.816)"/>
      <path id="Path_21" data-name="Path 21" d="M407.236,851.342c12.168,0,24.335-.028,36.5.013,5.013.017,8.354,3.605,8.164,8.589a7.921,7.921,0,0,1-7.474,7.679c-.8.08-1.621.06-2.431.06q-34.88,0-69.761,0c-.541,0-1.082.005-1.622-.015a8.169,8.169,0,0,1-8.23-8.254c.032-4.655,3.465-8.043,8.35-8.06,12.168-.042,24.335-.014,36.5-.014" transform="translate(-215.259 -505.699)"/>
      <path id="Path_22" data-name="Path 22" d="M127.455,134.357a8.181,8.181,0,0,1,13.41-5.027c2.178,1.92,4.161,4.062,6.217,6.12q22.734,22.757,45.471,45.511c2.192,2.19,3.466,4.667,2.891,7.821a8.058,8.058,0,0,1-12.506,5.421,15.39,15.39,0,0,1-2.458-2.1q-25.014-25.068-50.014-50.149a9.312,9.312,0,0,1-3.011-7.592" transform="translate(-75.706 -75.596)"/>
      <path id="Path_23" data-name="Path 23" d="M659.573,652.327a9.281,9.281,0,0,1,6.765,3.19Q686.8,676.1,707.294,696.65c3.295,3.307,6.631,6.575,9.877,9.928a8.144,8.144,0,0,1-4.471,13.866c-2.971.519-5.4-.653-7.484-2.745q-12.175-12.223-24.383-24.413-13.2-13.21-26.4-26.413c-2.445-2.434-3.6-5.2-2.656-8.628a7.862,7.862,0,0,1,7.8-5.918" transform="translate(-386.964 -387.487)"/>
      <path id="Path_24" data-name="Path 24" d="M407.3,813.291c-12.177,0-24.353.041-36.529-.02-5.138-.025-8.56-3.552-8.378-8.377a7.907,7.907,0,0,1,7.41-7.731c.539-.043,1.081-.06,1.622-.06q35.819,0,71.638.019a11.354,11.354,0,0,1,3.589.489c3.8,1.29,5.751,4.819,5.165,9.041a7.685,7.685,0,0,1-7.38,6.592c-1.281.083-2.569.057-3.854.058q-16.641.006-33.282,0Z" transform="translate(-215.259 -473.484)"/>
      <path id="Path_25" data-name="Path 25" d="M439.145,976.238c-4.8,0-9.6.026-14.394-.009a8.1,8.1,0,0,1-8.287-7.957,7.924,7.924,0,0,1,8.171-8.219q14.6-.11,29.194,0c4.932.033,8.238,3.394,8.22,8.1-.017,4.653-3.465,8.008-8.307,8.083-.135,0-.27,0-.406,0H439.145" transform="translate(-247.382 -570.247)"/>
    </g>
  </g>
</svg>
