<?xml version="1.0" encoding="UTF-8"?>
<svg id="Lag_2" data-name="Lag 2" xmlns="http://www.w3.org/2000/svg" viewBox="0 0 702.82 590.74">
  <defs>
    <style>
      .cls-1, .cls-2 {
        stroke-width: 0px;
      }

      .cls-2 {
        fill: #303030;
      }
    </style>
  </defs>
  <g id="Layer_1" data-name="Layer 1">
    <g>
      <path class="cls-2" d="M608.77,590.74H94.1c-44.42-47.67-76.11-108.24-88.48-177.14C-28.77,222.58,98.22,39.9,289.24,5.52c19.85-3.55,39.7-5.36,59.27-5.52,3.49,8.78,8.71,16.88,15.36,23.66-1.2,1.2-2.41,2.4-3.63,3.69-4.91,5.45-8.86,11.65-11.83,18.41-2.6,5.81-4.38,12.14-5.16,18.65-.83,6.69-.67,13.66.56,20.55,4.18,23.4,19.88,41.77,40.22,50.49-9.13,20.13-8.35,44.3,4.35,64.43,4.21,6.57,9.26,12.22,15.1,16.75,12.61,10.2,28.39,15.32,44.29,14.89-1.16,16.41,3.67,33.07,14.05,46.38,4.09,5.29,9.07,10.16,14.95,14.22,1.45.98,2.91,1.97,4.47,2.89,19.48,11.46,42.89,11.99,62.44,3.07,6.64,19.77,22.29,35.91,42.99,42.71,2.38.76,4.78,1.44,7.33,1.97,15.51,3.31,31,.94,44.23-5.72,6.47-3.18,12.48-7.45,17.69-12.62,5.49,5.78,12.11,10.63,19.28,14.19,8.44,4.2,17.76,6.64,27.56,6.99,1.69,92.68-33.53,180-93.99,245.14Z"/>
      <path class="cls-1" d="M570.05,590.74H132.88c-50.77-46.31-87.28-109.09-100.41-181.98C.81,232.65,117.86,64.1,294.06,32.46c22.29-4.01,44.4-5.66,66.18-5.11-4.91,5.45-8.86,11.65-11.83,18.41-2.6,5.81-4.38,12.14-5.16,18.65-.83,6.69-.67,13.66.56,20.55,4.18,23.4,19.88,41.77,40.22,50.49-9.13,20.13-8.35,44.3,4.35,64.43,4.21,6.57,9.26,12.22,15.1,16.75,12.61,10.2,28.39,15.32,44.29,14.89-1.16,16.41,3.67,33.07,14.05,46.38,4.09,5.29,9.07,10.16,14.95,14.22,1.45.98,2.91,1.97,4.47,2.89,19.48,11.46,42.89,11.99,62.44,3.07,6.64,19.77,22.29,35.91,42.99,42.71,2.38.76,4.78,1.44,7.33,1.97,15.51,3.31,31,.94,44.23-5.72,6.47-3.18,12.48-7.45,17.69-12.62,5.49,5.78,12.11,10.63,19.28,14.19,4.05,97.43-36.27,189.07-105.15,252.13Z"/>
      <path class="cls-2" d="M655.92,324.42c-5.21,5.17-11.22,9.44-17.69,12.62,3.35,63.18-14.26,125.36-50.99,178.21-21.05,30.25-47.13,55.7-76.92,75.49h31.5c22.96-18.32,43.37-40.08,60.6-64.86,19.76-28.48,34.34-59.39,43.46-91.74,9.99-35.47,13.41-72.51,10.04-109.72ZM50.61,405.5c13.31,73.89,52.3,139,110.65,185.24h31.47c-1.73-1.15-3.46-2.32-5.17-3.51-62.98-43.82-105.17-109.48-118.72-184.96-7.86-43.48-5.64-87.21,6.01-128.56,8.57-30.39,22.26-59.52,40.82-86.13,21.88-31.55,49.19-57.81,80.54-77.93,31.27-20.14,66.55-34.06,104.34-40.82,14.3-2.61,28.65-4.05,42.7-4.42.78-6.51,2.56-12.84,5.16-18.65-16.9.24-33.98,1.78-51.1,4.84C131.44,80.43,20.78,239.62,50.61,405.5Z"/>
      <path class="cls-2" d="M543.68,298.08c-19.55,8.92-42.96,8.39-62.44-3.07,2.64,8.73-1.24,13.99-11.68,15.86l-59.88,10.73c-4.85.85-8.7-.53-11.53-4.12-2.9-3.7-3.35-8.25-1.41-13.76,1.98-5.7,6.3-11.12,12.9-16.09,6.68-4.95,15.66-8.48,27-10.48,10.14-1.85,18.54-1.6,25.18.75-10.38-13.31-15.21-29.97-14.05-46.38-15.9.43-31.68-4.69-44.29-14.89-16.93,6.49-30.43,15.48-40.56,26.86-15.61,17.82-26.61,41.85-33.06,72.26-1.9,8.79-4.81,15-8.86,18.47-3.97,3.5-10.16,5.99-18.56,7.47l-71.44,12.86c-12.38,2.29-19.49-1.83-21.36-12.27-1.17-6.77-1.24-12.66-.13-17.64,1.14-5.06,2.28-10.13,3.35-15.31,1.08-5.18,1.03-11.16-.23-17.96-1.11-6.27-4.37-10.75-9.8-13.34-5.52-2.61-11.56-3.35-18.16-2.13-6.77,1.16-12.77,5.73-17.92,13.41-5.17,7.78-8.62,17.29-10.24,28.48-1.12,6.71-1.77,12.78-2.16,18.25-.41,5.56-.52,10.05-.44,13.53.13,9.08-5.14,14.81-15.84,17.28l-7.39,1.67c-20.67,4.37-29.47,14.78-26.56,31.09,3.04,17.21,15.09,24.26,35.97,21.19l7.8-1.07c6.64-1.01,12.06-.45,16.15,1.76,4.09,2.21,7.67,7.94,10.83,17.2,4.17,11.85,10.87,22.88,20.12,33.08,9.22,10.29,20.92,17.92,34.99,22.94,14.16,5.05,30.56,5.92,49.1,2.59,26.54-4.74,47.45-17.51,62.74-38.31s26.71-45.96,34.31-75.66c1.18-4.86,2.83-8.34,4.9-10.55,2.15-2.18,6-3.89,11.76-4.86l88.88-16.03c7.7-1.39,13.3-.77,16.85,1.96,3.56,2.73,5.74,6.62,6.69,11.79,1.19,6.69,1.17,13.61-.17,20.73-1.25,7.15-2.58,14.28-3.95,21.21-1.29,6.94-1.42,13.55-.34,19.62,1.58,8.72,5.37,15.08,11.32,18.87,5.93,3.89,12.82,5.06,20.72,3.63,8.4-1.48,15.19-5.44,20.17-11.83,5.06-6.36,8.69-16.5,10.76-30.34,1.08-7.59,1.9-16.3,2.55-26.12.65-9.82.47-17.38-.51-22.76-.99-5.37-.34-9.04,1.74-10.95,2.19-1.98,4.59-3.33,7.26-3.92l6.38-1.47c1.94-.42,3.71-.88,5.53-1.52-20.7-6.8-36.35-22.94-42.99-42.71ZM301.91,408.11c-2.08,4.99-6.16,9.9-12.35,14.8-6.1,4.92-15.17,8.42-27.23,10.6-7.3,1.31-13.82.24-19.5-3.18-5.69-3.34-9.72-7.84-12-13.39-2.22-5.44-2.54-9.76-.96-12.97,1.66-3.19,6.43-5.4,14.33-6.83l37.81-6.85c7.59-1.33,13.46-.64,17.75,2.21,4.3,2.84,5.04,8.06,2.15,15.61Z"/>
    </g>
  </g>
</svg>