<svg xmlns="http://www.w3.org/2000/svg" xmlns:xlink="http://www.w3.org/1999/xlink" width="452.585" height="260.099" viewBox="0 0 452.585 260.099">
  <defs>
    <clipPath id="clip-path">
      <rect id="Rectangle_5" data-name="Rectangle 5" width="452.585" height="260.099" fill="none"/>
    </clipPath>
  </defs>
  <g id="Group_11" data-name="Group 11" clip-path="url(#clip-path)">
    <path id="Path_34" data-name="Path 34" d="M189.825,54.2a7.865,7.865,0,0,1-.964-.059l-44.407-5.47a7.8,7.8,0,1,1,1.91-15.49l44.4,5.47a7.8,7.8,0,0,1-.942,15.549" transform="translate(123.094 29.634)" fill="#1a1818"/>
    <path id="Path_35" data-name="Path 35" d="M188.2,41.538a7.8,7.8,0,0,1-7.025-4.4l-8.05-16.589a7.8,7.8,0,1,1,14.041-6.813l8.05,16.591a7.806,7.806,0,0,1-7.016,11.21" transform="translate(154.17 8.353)" fill="#1a1818"/>
    <path id="Path_36" data-name="Path 36" d="M208.828,54.742A7.8,7.8,0,0,1,202.418,42.5L229.511,3.362a7.8,7.8,0,1,1,12.83,8.884L215.25,51.379a7.8,7.8,0,0,1-6.423,3.363" transform="translate(179.834 -0.001)" fill="#1a1818"/>
    <path id="Path_37" data-name="Path 37" d="M184.712,47.645q0-3.515,1.589-5.108a5.911,5.911,0,0,1,4.367-1.591h10.176q8.139,0,12.711,3.645a12.266,12.266,0,0,1,4.57,10.159,11.92,11.92,0,0,1-6.845,11.36,15.146,15.146,0,0,1,6.512,4.753,12.284,12.284,0,0,1,2.332,7.679q0,7.366-4.848,11.417t-13.58,4.051H190.854a6.134,6.134,0,0,1-4.534-1.608q-1.609-1.611-1.608-5.458Zm20.85,4.532a7.655,7.655,0,0,0-4.9-1.313h-4.145V62.076h4.107q6.55,0,6.55-5.625a5.208,5.208,0,0,0-1.61-4.274m3.35,25.514a5.551,5.551,0,0,0-2.109-4.755,9.677,9.677,0,0,0-5.885-1.573h-4.4v12.73H201.1a9.657,9.657,0,0,0,5.809-1.48q2-1.481,2-4.922" transform="translate(165.236 36.629)" fill="#1a1818"/>
    <path id="Path_38" data-name="Path 38" d="M205.18,55.448q0-6.514,5.661-6.514,5.7,0,5.7,6.514V73.578q0,3.814,2.812,3.812a3.774,3.774,0,0,0,3.109-1.665,8.391,8.391,0,0,0,1.258-5.07V55.448q0-6.514,5.7-6.514,5.661,0,5.661,6.514V73.023a14.72,14.72,0,0,0,.371,3.552q.367,1.481.739,2.776a10.366,10.366,0,0,1,.369,2.849,4.927,4.927,0,0,1-1.368,3.7,5.506,5.506,0,0,1-4,1.332,4.906,4.906,0,0,1-3.941-1.775q-1.5-1.776-2.423-6.216a11.749,11.749,0,0,1-4,6.345,10.206,10.206,0,0,1-6.292,2.054,8.579,8.579,0,0,1-6.752-2.959q-2.609-2.961-2.609-9.694Z" transform="translate(183.546 43.775)" fill="#1a1818"/>
    <path id="Path_39" data-name="Path 39" d="M243.1,92.339a8.236,8.236,0,0,1-1.813,3.386,4.6,4.6,0,0,1-3.59,1.389q-3.774,0-5.013-2.387a7.417,7.417,0,0,1-.2-5.754l1.775-5.551a5.892,5.892,0,0,1-3.109-1.277,7.978,7.978,0,0,1-2.219-4.162L223.01,57.224q-1-3.737.443-6.013a5.253,5.253,0,0,1,4.81-2.275q4.328,0,5.218,4.625l4.625,19.353,4.81-19.353q1-4.624,5.218-4.625a4.957,4.957,0,0,1,4.553,2.183q1.367,2.185.3,6.068Z" transform="translate(199.131 43.775)" fill="#1a1818"/>
    <path id="Path_40" data-name="Path 40" d="M211.859,85.7l.028,46.544a5.177,5.177,0,0,0,7.633,4.553l38.82-20.91a5.176,5.176,0,0,0,.4-8.878l-38.85-25.633a5.177,5.177,0,0,0-8.027,4.325" transform="translate(189.521 72.019)" fill="#1a1818"/>
    <path id="Path_41" data-name="Path 41" d="M216.284,83.317h0a6.888,6.888,0,0,1,9.331,2.8l35.906,66.655a6.888,6.888,0,1,1-12.129,6.532L213.486,92.647a6.888,6.888,0,0,1,2.8-9.331" transform="translate(190.238 73.794)" fill="#1a1818"/>
    <path id="Path_42" data-name="Path 42" d="M153.605,175.311a7.769,7.769,0,0,1-7.768-7.768c0-37.651-102.71-54.363-138.69-57.25A7.768,7.768,0,0,1,8.387,94.807c1.516.121,37.569,3.081,74.274,12.726,52.229,13.726,78.712,33.916,78.712,60.01a7.769,7.769,0,0,1-7.768,7.768" transform="translate(0 84.788)" fill="#1a1818"/>
    <path id="Path_43" data-name="Path 43" d="M134.574,157.677a7.769,7.769,0,0,1-7.768-7.768c0-.445-.51-2.078-2.836-4.249C117.309,139.442,92.706,125.6,8.3,131.409a7.767,7.767,0,1,1-1.067-15.5c82.857-5.7,114.981,6.856,127.337,18.392,5.011,4.678,7.77,10.219,7.77,15.606a7.769,7.769,0,0,1-7.768,7.768" transform="translate(0 102.421)" fill="#1a1818"/>
    <path id="Path_44" data-name="Path 44" d="M95.257,175.31a7.769,7.769,0,0,1-7.768-7.768c0-26.094,26.482-46.284,78.712-60.01,36.705-9.645,72.757-12.6,74.274-12.726a7.768,7.768,0,0,1,1.239,15.486c-35.982,2.887-138.69,19.6-138.69,57.25a7.769,7.769,0,0,1-7.768,7.768" transform="translate(78.264 84.789)" fill="#1a1818"/>
    <path id="Path_45" data-name="Path 45" d="M105.3,157.678a7.769,7.769,0,0,1-7.768-7.768c0-5.386,2.758-10.928,7.77-15.605,12.356-11.538,44.479-24.093,127.337-18.392a7.767,7.767,0,1,1-1.067,15.5c-84.407-5.807-109.009,8.033-115.669,14.251-2.327,2.171-2.836,3.8-2.836,4.249a7.769,7.769,0,0,1-7.768,7.768" transform="translate(87.25 102.421)" fill="#1a1818"/>
    <path id="Path_46" data-name="Path 46" d="M163.571,130.254a7.764,7.764,0,0,1-6.489-3.486c-.324-.491-33.034-48.859-87.567-58.889L12.783,115.844a7.768,7.768,0,1,1-10.03-11.864L64.927,51.416l3.484.529C131.964,61.571,168.52,115.9,170.045,118.2a7.77,7.77,0,0,1-6.474,12.051" transform="translate(0 45.995)" fill="#1a1818"/>
    <path id="Path_47" data-name="Path 47" d="M89.994,130.246a7.768,7.768,0,0,1-6.517-11.977c1.491-2.309,37.266-56.695,100.868-66.327l3.454-.523,62.973,52.527a7.768,7.768,0,1,1-9.952,11.93l-57.549-48c-54.471,10.007-86.426,58.337-86.75,58.834a7.766,7.766,0,0,1-6.527,3.541" transform="translate(73.564 45.998)" fill="#1a1818"/>
  </g>
</svg>
