<svg id="Group_8" data-name="Group 8" xmlns="http://www.w3.org/2000/svg" xmlns:xlink="http://www.w3.org/1999/xlink" width="362.318" height="375.327" viewBox="0 0 362.318 375.327">
  <defs>
    <clipPath id="clip-path">
      <rect id="Rectangle_3" data-name="Rectangle 3" width="362.318" height="375.327" fill="none"/>
    </clipPath>
  </defs>
  <g id="Group_7" data-name="Group 7" clip-path="url(#clip-path)">
    <path id="Path_26" data-name="Path 26" d="M260.775,0H37.054A37.11,37.11,0,0,0,0,37.073v223.7a37.106,37.106,0,0,0,37.054,37.054H220.713a35.98,35.98,0,0,1-4.847-15.787H37.054a21.292,21.292,0,0,1-21.267-21.267V37.073A21.3,21.3,0,0,1,37.054,15.787H260.775a21.3,21.3,0,0,1,21.267,21.286V239.508a41.5,41.5,0,0,1,10.346-1.3,39.328,39.328,0,0,1,5.441.364V37.073A37.11,37.11,0,0,0,260.775,0" fill="#1a1818"/>
    <path id="Path_27" data-name="Path 27" d="M167.441,183.869H7.894a7.891,7.891,0,1,1,0-15.781H167.441a7.891,7.891,0,1,1,0,15.781" transform="translate(0.002 153.954)" fill="#1a1818"/>
    <path id="Path_28" data-name="Path 28" d="M234.917,200.268H7.893a7.891,7.891,0,0,1,0-15.781H234.917a7.891,7.891,0,1,1,0,15.781" transform="translate(0.003 168.974)" fill="#1a1818"/>
    <path id="Path_29" data-name="Path 29" d="M196.456,173.568,174.5,195.505a13.463,13.463,0,0,1-10.48,3.947,10.813,10.813,0,0,1-8.028-3.046L133.9,174.794l-5.958-5.824a17.611,17.611,0,0,1-.383-24.83l.383-.383a18.521,18.521,0,0,1,25.769,0l3.736,3.679L163.886,141a23.015,23.015,0,0,1,32.4,0,23.029,23.029,0,0,1,.172,32.57" transform="translate(112.312 123.034)" fill="#1a1818"/>
    <path id="Path_30" data-name="Path 30" d="M200.812,115.454l-24.581,37.993a7.384,7.384,0,0,1-2.433,2.376l-.019-.019a42.654,42.654,0,0,0-11.879-8.277,7.614,7.614,0,0,1,1.092-2.663l24.581-37.993a7.889,7.889,0,1,1,13.239,8.583" transform="translate(148.286 94.587)" fill="#1a1818"/>
    <path id="Path_31" data-name="Path 31" d="M203.27,152.8a7.907,7.907,0,0,1-7.894,7.894H176.735a7.913,7.913,0,0,1-3.085-.613,41.417,41.417,0,0,0,1.763-15.059,7.379,7.379,0,0,1,1.322-.115h18.642a7.9,7.9,0,0,1,7.894,7.894" transform="translate(159.048 132.725)" fill="#1a1818"/>
    <path id="Path_32" data-name="Path 32" d="M193.237,222.133a7.888,7.888,0,0,1-10.748-3.008L158.847,177.2a4.241,4.241,0,0,1-.307-.671l10.384-10.384a7.551,7.551,0,0,1,3.659,3.315l23.642,41.92a7.886,7.886,0,0,1-2.989,10.748" transform="translate(145.209 152.179)" fill="#1a1818"/>
  </g>
</svg>
