<?xml version="1.0" encoding="UTF-8"?>
<svg id="Layer_2" data-name="Layer 2" xmlns="http://www.w3.org/2000/svg" viewBox="0 0 221.16 45.27">
  <defs>
    <style>
      .cls-1 {
        fill: #fff;
        stroke-width: 0px;
      }
    </style>
  </defs>
  <g id="Layer_1-2" data-name="Layer 1">
    <g>
      <path class="cls-1" d="M20.01,23.48c-1.04-1.38-2.44-2.39-4.2-3.04,1.43-.69,2.53-1.61,3.31-2.77.77-1.16,1.17-2.64,1.17-4.47,0-2.83-.92-5.01-2.74-6.55-1.83-1.54-4.38-2.31-7.65-2.31H3c-2,0-3,1.12-3,3.36v27.31c0,1.2.26,2.09.77,2.64.52.55,1.28.83,2.28.83h7.26c3.47,0,6.22-.86,8.24-2.59,2.01-1.73,3.02-4.16,3.02-7.29,0-2.03-.52-3.73-1.56-5.12ZM5.93,9.53h3.93c1.6,0,2.79.34,3.58,1.04.78.68,1.18,1.79,1.18,3.3,0,2.88-1.6,4.33-4.79,4.33h-3.9v-8.67ZM14.32,32.05c-.99.83-2.39,1.24-4.18,1.24h-4.21v-10.12h4.16c1.78,0,3.18.43,4.2,1.29,1.01.86,1.52,2.11,1.52,3.76s-.5,3.01-1.49,3.83Z"/>
      <path class="cls-1" d="M42.74,33.71c-.3-.77-.46-1.83-.46-3.18v-12.9c0-2.23-.95-3.34-2.86-3.34s-2.83,1.11-2.83,3.34v10.4c0,1.97-.38,3.43-1.14,4.38-.76.95-1.68,1.43-2.76,1.43-.84,0-1.48-.28-1.9-.84-.43-.55-.65-1.43-.65-2.63v-12.74c0-2.23-.94-3.34-2.83-3.34s-2.83,1.11-2.83,3.34v13.59c0,2.64.52,4.57,1.58,5.82,1.05,1.25,2.49,1.87,4.3,1.87,1.44,0,2.78-.42,4.01-1.26,1.23-.84,2.14-2.21,2.74-4.09.35,1.93.8,3.27,1.34,4.02.54.75,1.25,1.12,2.12,1.12s1.51-.24,1.95-.7c.44-.48.67-1.1.67-1.88,0-.83-.15-1.64-.45-2.41Z"/>
      <path class="cls-1" d="M62.28,4.12c-1.94,0-2.89,1.12-2.85,3.34l.07,12.09c-.75-2.06-1.67-3.49-2.77-4.29-1.09-.81-2.34-1.21-3.73-1.21-1.29,0-2.5.38-3.62,1.12-1.13.75-2.04,1.99-2.74,3.72-.7,1.73-1.05,4.08-1.05,7.05v1.09c0,2.99.38,5.34,1.12,7.07.75,1.73,1.71,2.97,2.87,3.7,1.17.74,2.38,1.11,3.63,1.11,1.53,0,2.89-.45,4.09-1.34,1.21-.9,2.16-2.54,2.84-4.92l.64,3.5c.18.95.45,1.61.82,1.99.38.37.87.56,1.49.56s1.11-.22,1.48-.67c.36-.44.54-1.14.54-2.09V7.46c0-2.22-.94-3.34-2.83-3.34ZM59.45,27.75c0,2.01-.4,3.53-1.19,4.55-.8,1.03-1.82,1.54-3.07,1.54s-2.15-.52-2.82-1.57c-.68-1.05-1.02-2.64-1.02-4.79v-1.97c0-2.15.34-3.74,1.02-4.79.67-1.05,1.61-1.57,2.82-1.57s2.27.51,3.07,1.52c.79,1.02,1.19,2.54,1.19,4.57v2.51Z"/>
      <path class="cls-1" d="M87.34,14.94c-.39-.43-.91-.65-1.56-.65-.54,0-.99.18-1.37.54-.37.36-.64,1.02-.82,1.99l-.64,3.5c-.68-2.37-1.63-4-2.84-4.91-1.2-.9-2.57-1.36-4.11-1.36-1.24,0-2.45.38-3.61,1.12-1.17.75-2.12,1.96-2.87,3.64-.74,1.69-1.12,3.95-1.12,6.79v.5c0,2.57.36,4.66,1.07,6.26.63,1.41,1.41,2.48,2.36,3.23.13.11.27.2.4.3,1.13.74,2.3,1.12,3.51,1.12.5,0,.99-.06,1.45-.16.89-.18,1.7-.55,2.45-1.09.24-.18.47-.38.69-.62.83-.86,1.5-2.1,2.02-3.73v1.81c0,.38-.01.74-.03,1.08-.03.43-.07.84-.13,1.22-.13.82-.34,1.51-.61,2.07-.5,1.01-1.18,1.7-2.04,2.08-.85.38-1.84.57-2.97.57-.73,0-1.38-.05-1.94-.18-.11-.02-.23-.05-.34-.08-.32-.09-.65-.16-.99-.2-.32-.04-.65-.06-.99-.06-.83,0-1.47.21-1.92.62-.45.41-.68.98-.68,1.69,0,.46.11.88.31,1.23.08.12.16.24.25.34.14.16.32.31.53.44.37.24.84.45,1.43.63.67.21,1.42.36,2.24.46.83.09,1.65.14,2.48.14,1.59,0,3.01-.18,4.25-.54,1.66-.49,3-1.29,4.02-2.4.12-.13.24-.27.35-.41,1.4-1.77,2.17-4.45,2.32-8.03.02-.36.03-.73.03-1.1v-15.71c0-.99-.19-1.7-.58-2.14ZM82.26,26.17c0,1.73-.32,3.09-.95,4.07-.08.12-.16.23-.24.34-.79,1-1.82,1.5-3.07,1.5-.25,0-.48-.03-.71-.07-.87-.16-1.58-.65-2.11-1.47-.68-1.02-1.02-2.56-1.02-4.63v-.57c0-2.06.34-3.61,1.02-4.64.67-1.03,1.61-1.55,2.82-1.55s2.28.5,3.07,1.51c.79,1.01,1.19,2.48,1.19,4.42v1.09Z"/>
      <path class="cls-1" d="M106.33,33.08c-.48,0-.91.07-1.28.21-.39.14-.81.29-1.27.43-.46.14-1.05.21-1.78.21h-.31c-1.28-.04-2.28-.32-3-.84-.21-.14-.39-.31-.55-.49-.77-.88-1.17-2.23-1.19-4.04v-.05h8.78c1.29,0,2.19-.31,2.71-.92.51-.61.77-1.53.77-2.75,0-3.72-.78-6.44-2.33-8.18-1.56-1.74-3.6-2.61-6.12-2.61-3,0-5.35.97-7.04,2.9s-2.53,4.86-2.53,8.8v1.57c0,.33,0,.66.01.97.07,1.55.27,2.93.63,4.13.1.38.23.74.37,1.08.41,1.01.95,1.88,1.62,2.59,1.75,1.88,4.37,2.82,7.87,2.82.68,0,1.41-.05,2.19-.14.77-.1,1.56-.27,2.35-.52.42-.12.79-.27,1.11-.45.36-.21.65-.45.87-.74.32-.41.48-.92.48-1.51,0-.65-.19-1.22-.56-1.72s-.97-.75-1.8-.75ZM100.83,19.05c1.08,0,1.89.39,2.44,1.16.55.77.82,2.02.82,3.75v.64h-7.19c.04-3.7,1.34-5.55,3.93-5.55Z"/>
      <path class="cls-1" d="M122.78,33.74c-1.15-.04-1.92-.28-2.29-.7-.38-.42-.57-1.12-.57-2.1v-11.43h2.58c.98,0,1.72-.22,2.22-.67s.75-1.05.75-1.81-.25-1.39-.76-1.84c-.51-.46-1.28-.68-2.34-.68h-2.45v-2.74c0-2.22-.94-3.33-2.83-3.33s-2.85,1.11-2.85,3.33v2.76h-1.55c-.88,0-1.56.22-2.04.67-.48.44-.73,1.06-.73,1.83s.25,1.38.74,1.81,1.17.64,2.03.64h1.55v12.07c0,2.38.56,4.19,1.68,5.42,1.13,1.23,2.96,1.85,5.48,1.85s3.81-.91,3.81-2.72c0-1.47-.81-2.26-2.43-2.36Z"/>
    </g>
    <g>
      <path class="cls-1" d="M147.04,21.96c.58.9.86,2.18.86,3.83v.38c0,1.74-.22,2.98-.66,3.73-.44.74-1.15,1.12-2.1,1.12s-1.83-.39-2.6-1.17c-.76-.77-1.14-2.08-1.14-3.9v-.28c0-1.91.35-3.24,1.04-3.98.69-.73,1.49-1.1,2.39-1.1s1.64.45,2.21,1.37Z"/>
      <path class="cls-1" d="M192.64,20.24c-.42-.5-1.04-.76-1.86-.79h0s-.09-.01-.14-.01h-.03c-.98,0-1.69.26-2.17.78-.48.52-.73,1.12-.78,1.81-.03.54.07.92.28,1.14.21.23.55.36,1.03.39l2.99.15c.53.02.88-.06,1.07-.22.19-.16.29-.46.29-.91v-.09c0-.96-.23-1.71-.67-2.25ZM192.64,20.24c-.42-.5-1.04-.76-1.86-.79h0s-.09-.01-.14-.01h-.03c-.98,0-1.69.26-2.17.78-.48.52-.73,1.12-.78,1.81-.03.54.07.92.28,1.14.21.23.55.36,1.03.39l2.99.15c.53.02.88-.06,1.07-.22.19-.16.29-.46.29-.91v-.09c0-.96-.23-1.71-.67-2.25ZM219.17,23.2c1.3-1.41,1.99-3.26,1.99-5.33,0-1.82-.59-3.49-1.7-4.86-.06-.08-.12-.16-.19-.23-.22-.24-.44-.48-.68-.68-.85-.79-1.83-1.4-2.92-1.82-.25-.11-.51-.2-.78-.29-.76-.23-1.58-.42-2.45-.55-1.07-.15-2.15-.24-3.24-.24-3.44,0-6.33.77-8.61,2.27-.54.34-1.03.75-1.47,1.18-.68-.65-1.42-1.2-2.23-1.67-1.97-1.15-4.14-1.73-6.45-1.73-2.56,0-4.93.61-7.04,1.82-.23.13-.46.27-.68.42-.83-.6-1.81-1.02-2.94-1.27-.32-1.52-.97-2.77-1.95-3.73-.92-.91-2.54-1.97-5.09-1.97-1.47,0-3.07.41-4.45,1.41-.37-1.41-1.1-2.67-2.19-3.69-.53-.5-1.11-.93-1.73-1.26-1.2-.65-2.56-.98-4.02-.98s-2.81.33-4.02.98c-.63.33-1.21.75-1.75,1.25-.58.54-1.22,1.3-1.72,2.32-.49,1.01-.84,2.3-.84,3.87,0,.62.06,1.19.16,1.72-1.59-.85-3.28-1.29-5.06-1.29-.35,0-.7.02-1.04.06.02-2.27-.39-4.02-1.28-5.44-1.31-2.11-3.58-3.32-6.19-3.32-1.57,0-3.01.4-4.29,1.19-1.5.92-2.57,2.41-3.2,4.4-.45,1.39-.65,3.09-.65,5.34l.03,19.86c.01,2.28.17,4.04.47,5.38.47,2.05,1.31,3.55,2.56,4.59,1.27,1.04,2.82,1.6,4.49,1.6,1.2,0,2.52-.32,3.68-1.09.06.03.14.07.2.11,1.51.86,3.17,1.29,4.93,1.29,2.38,0,4.55-.65,6.46-1.93.48-.33.94-.71,1.38-1.12,1.35,1.57,3.31,2.46,5.48,2.46,1.5,0,2.94-.42,4.16-1.21,1.03-.67,1.85-1.62,2.46-2.83.12.17.25.35.39.51,2.08,2.41,5.13,3.64,9.05,3.64,2.59,0,4.69-.63,6.27-1.87.05-.04.1-.09.16-.14,2.31,1.46,5.14,2.21,8.44,2.21,2.17,0,4.04-.29,5.69-.86,1.01-.33,1.89-.75,2.68-1.27.75.49,1.59.88,2.5,1.17l.1.02c.65.19,1.39.38,2.2.55,1.04.23,2.2.34,3.54.34,4.2,0,7.51-1.12,9.81-3.33.36-.35.7-.7,1-1.09.69-.85,1.24-1.78,1.65-2.79.23-.54.41-1.1.55-1.67.14-.58.23-1.2.3-1.82.04-.42.06-.86.06-1.29,0-2.68-.8-5.05-2.35-6.94.12-.11.23-.23.36-.36ZM154.32,26.27c0,2.92-.33,5.24-.98,6.97-.66,1.73-1.55,2.97-2.68,3.73-1.12.76-2.4,1.14-3.83,1.14-.94,0-1.82-.23-2.62-.68-.79-.45-1.45-1.19-1.96-2.21-.17-.38-.34-.65-.51-.78s-.35-.2-.53-.2c-.5,0-.84.4-1.03,1.18l-.04.24c-.34,1.43-1.05,2.14-2.12,2.14-.57,0-1.06-.17-1.48-.52-.43-.35-.75-1.02-.97-2.01-.23-.99-.35-2.44-.36-4.36l-.03-19.83c0-1.72.15-3.02.43-3.91.29-.9.68-1.5,1.2-1.82s1.11-.48,1.8-.48c1,0,1.74.36,2.19,1.1.46.73.64,1.94.54,3.63l-.22,5.36c-.05.66-.01,1.12.12,1.38s.31.4.58.4c.16,0,.35-.08.55-.21.21-.14.44-.4.66-.76.99-1.47,2.36-2.2,4.09-2.2,1.25,0,2.42.37,3.52,1.13,1.1.76,1.98,2.01,2.66,3.74.68,1.75,1.02,4.08,1.02,7.02v.81ZM163.26,31.93c0,1.51-.15,2.67-.42,3.48-.27.8-.64,1.36-1.1,1.66-.46.29-.99.44-1.59.44-.94,0-1.65-.36-2.12-1.09-.47-.73-.72-1.95-.75-3.69l-.28-12.86c-.01-1.58.12-2.8.41-3.66.29-.86.71-1.45,1.24-1.78.54-.33,1.17-.49,1.9-.49.94,0,1.7.38,2.25,1.15.57.76.83,2.1.8,4.02l-.34,12.82ZM162.76,10.65c-.73.58-1.6.9-2.58.98-1.11.07-1.95-.18-2.55-.76-.6-.57-.9-1.38-.9-2.45,0-1.18.35-2.09,1.06-2.73.69-.65,1.54-.97,2.56-.97s1.84.31,2.51.94,1.01,1.46,1.01,2.48c0,1.1-.37,1.94-1.11,2.51ZM176.13,30.96c.33.45.93.75,1.78.91.98.18,1.69.5,2.11.92.41.43.62,1.03.62,1.78,0,.9-.36,1.63-1.09,2.2-.71.57-1.83.86-3.34.86-2.5,0-4.33-.67-5.49-2.01-1.15-1.34-1.65-3.41-1.49-6.21l.39-7.09c.06-.98-.04-1.62-.3-1.92-.27-.29-.76-.46-1.48-.51l-.38-.02c-1.59-.21-2.39-1.04-2.39-2.48,0-.65.18-1.16.57-1.58.39-.4,1.05-.72,1.97-.95l.26-.07c.57-.12.98-.33,1.23-.63.24-.31.43-.77.57-1.4l.13-.65c.37-1.93,1.36-2.88,2.94-2.88.77,0,1.37.21,1.79.62.42.42.67,1.12.74,2.11v.3c.04.83.2,1.42.47,1.77.27.35.76.56,1.48.63l1.04.09c.92.1,1.57.36,1.96.79.39.43.59.95.59,1.56,0,1.28-.8,2.06-2.42,2.34l-.72.09c-.84.11-1.39.36-1.63.76-.26.39-.37.97-.35,1.74l-.05,6.53c0,1.15.16,1.95.49,2.4ZM188.73,31.55c.5.49,1.4.73,2.74.73.72,0,1.33-.1,1.84-.29.51-.2.98-.4,1.42-.6.45-.18.93-.29,1.44-.29.76,0,1.33.28,1.7.82.38.55.56,1.17.56,1.89s-.27,1.39-.79,2c-.53.6-1.32,1.06-2.37,1.4-1.15.41-2.55.61-4.19.61-3.18,0-5.62-.87-7.34-2.61-1.71-1.73-2.55-4.71-2.55-8.93v-1.19c0-2.55.4-4.64,1.22-6.27.82-1.64,1.93-2.86,3.33-3.66,1.39-.8,2.97-1.2,4.7-1.2,1.47,0,2.83.36,4.08,1.09,1.26.73,2.27,1.85,3.04,3.38.77,1.53,1.15,3.51,1.15,5.93s-1.24,3.59-3.75,3.6l-4.9.09c-1.38.04-2.08.54-2.08,1.49,0,.86.26,1.54.75,2.01ZM207.7,22.22c.23.35.73.67,1.5.94l.55.2c1.63.59,2.94,1.21,3.93,1.88.51.35.93.7,1.27,1.06,1,1.09,1.49,2.48,1.49,4.2,0,.99-.14,1.89-.44,2.71-.35.97-.9,1.82-1.66,2.55-1.4,1.35-3.58,2.02-6.55,2.02-.99,0-1.84-.08-2.55-.23-.7-.16-1.33-.31-1.88-.47-.89-.27-1.6-.72-2.16-1.31-.56-.6-.83-1.42-.83-2.44,0-.95.26-1.62.78-2.02.53-.4,1.17-.59,1.93-.59.59,0,1.15.13,1.67.41.53.27,1.06.54,1.59.81.52.27,1.1.41,1.71.41.73,0,1.23-.19,1.49-.56.28-.38.41-.78.41-1.23,0-.5-.15-.95-.44-1.33-.29-.38-.92-.82-1.87-1.33l-1.03-.46c-1.6-.8-2.81-1.58-3.62-2.33-.82-.76-1.37-1.53-1.65-2.32-.28-.79-.42-1.63-.42-2.53,0-2.25.75-3.87,2.25-4.86,1.51-.98,3.52-1.48,6.03-1.48.86,0,1.71.06,2.55.18.75.12,1.42.28,2.01.5.06,0,.12.03.18.06.71.27,1.31.69,1.79,1.24.48.53.71,1.19.71,1.97,0,.88-.24,1.6-.74,2.15-.51.54-1.13.82-1.87.82-.19,0-.37-.01-.55-.04-.56-.07-1.1-.26-1.61-.55-.67-.39-1.39-.57-2.16-.57-.73,0-1.27.13-1.63.4s-.52.6-.52.99c0,.41.11.79.34,1.15ZM191.95,23.71c.53.02.88-.06,1.07-.22.19-.16.29-.46.29-.91v-.09c0-.96-.23-1.71-.67-2.25-.42-.5-1.04-.76-1.86-.79h0s-.09-.01-.14-.01h-.03c-.98,0-1.69.26-2.17.78-.48.52-.73,1.12-.78,1.81-.03.54.07.92.28,1.14.21.23.55.36,1.03.39l2.99.15Z"/>
    </g>
  </g>
</svg>