<?xml version="1.0" encoding="UTF-8"?>
<svg id="Lag_2" data-name="Lag 2" xmlns="http://www.w3.org/2000/svg" viewBox="0 0 221.16 45.27">
  <defs>
    <style>
      .cls-1 {
        fill: #ed1c24;
      }

      .cls-1, .cls-2, .cls-3 {
        stroke-width: 0px;
      }

      .cls-2 {
        fill: #fff;
      }

      .cls-3 {
        fill: #231f20;
      }
    </style>
  </defs>
  <g id="Layer_1" data-name="Layer 1">
    <g>
      <g>
        <path class="cls-3" d="M20.01,23.48c-1.04-1.38-2.44-2.4-4.2-3.05,1.43-.68,2.53-1.6,3.31-2.76.78-1.16,1.17-2.65,1.17-4.48,0-2.82-.91-5.01-2.74-6.55-1.83-1.54-4.37-2.31-7.64-2.31H3c-2,0-3,1.12-3,3.36v27.31c0,1.21.26,2.09.78,2.64.51.55,1.27.83,2.27.83h7.26c3.47,0,6.22-.86,8.24-2.59,2.01-1.73,3.02-4.16,3.02-7.29,0-2.03-.52-3.74-1.56-5.12ZM5.93,9.53h3.93c1.6,0,2.79.34,3.58,1.04.79.69,1.18,1.79,1.18,3.3,0,2.89-1.59,4.33-4.78,4.33h-3.91v-8.67ZM14.32,32.05c-.99.82-2.38,1.24-4.18,1.24h-4.21v-10.12h4.17c1.78,0,3.18.43,4.19,1.29,1.01.86,1.52,2.11,1.52,3.76s-.49,3.01-1.49,3.83Z"/>
        <path class="cls-3" d="M42.74,33.7c-.3-.77-.45-1.83-.45-3.18v-12.9c0-2.22-.95-3.33-2.86-3.33s-2.83,1.11-2.83,3.33v10.41c0,1.97-.38,3.43-1.14,4.38-.76.95-1.68,1.43-2.76,1.43-.84,0-1.48-.28-1.9-.83-.43-.55-.65-1.43-.65-2.64v-12.74c0-2.22-.94-3.33-2.83-3.33s-2.83,1.11-2.83,3.33v13.59c0,2.64.53,4.58,1.58,5.83,1.06,1.24,2.49,1.87,4.3,1.87,1.44,0,2.78-.42,4.01-1.26,1.23-.84,2.14-2.21,2.75-4.1.35,1.94.8,3.28,1.33,4.02.54.75,1.25,1.12,2.12,1.12s1.51-.24,1.95-.7c.44-.47.67-1.09.67-1.87,0-.84-.15-1.64-.45-2.42Z"/>
        <path class="cls-3" d="M62.29,4.12c-1.94,0-2.89,1.11-2.86,3.34l.07,12.09c-.74-2.06-1.66-3.5-2.76-4.3-1.09-.8-2.34-1.2-3.74-1.2-1.29,0-2.49.37-3.62,1.12-1.13.75-2.04,1.98-2.74,3.72-.7,1.73-1.05,4.08-1.05,7.05v1.09c0,2.99.37,5.34,1.12,7.07.75,1.73,1.71,2.96,2.87,3.7,1.17.74,2.38,1.11,3.63,1.11,1.52,0,2.88-.45,4.09-1.34,1.21-.9,2.15-2.54,2.84-4.92l.64,3.5c.17.95.45,1.62.82,1.99.37.37.87.56,1.49.56s1.11-.22,1.48-.67c.37-.44.55-1.14.55-2.09V7.46c0-2.22-.94-3.34-2.83-3.34ZM59.45,27.74c0,2.02-.4,3.53-1.19,4.56-.8,1.03-1.82,1.54-3.07,1.54s-2.15-.52-2.82-1.57c-.67-1.05-1.01-2.64-1.01-4.79v-1.97c0-2.14.34-3.74,1.01-4.78.67-1.05,1.62-1.57,2.82-1.57s2.28.51,3.07,1.52c.79,1.02,1.19,2.54,1.19,4.57v2.5Z"/>
        <path class="cls-3" d="M87.35,14.94c-.39-.43-.91-.65-1.56-.65-.54,0-1,.17-1.37.53-.37.36-.65,1.02-.82,1.99l-.65,3.5c-.68-2.37-1.63-4-2.83-4.91-1.21-.9-2.58-1.36-4.12-1.36-1.23,0-2.44.37-3.61,1.12-1.17.75-2.13,1.96-2.87,3.64-.74,1.68-1.12,3.94-1.12,6.79v.5c0,2.57.35,4.66,1.07,6.26.63,1.4,1.41,2.48,2.36,3.23.13.11.27.2.41.3,1.13.74,2.3,1.12,3.5,1.12.5,0,.99-.05,1.46-.15.89-.19,1.7-.55,2.45-1.1.25-.18.48-.38.69-.61.82-.86,1.5-2.11,2.02-3.73v1.81c0,.38-.01.74-.04,1.08-.03.43-.07.84-.13,1.22-.13.82-.33,1.52-.61,2.07-.5,1.01-1.18,1.7-2.04,2.08-.86.38-1.85.57-2.98.57-.73,0-1.38-.06-1.93-.18-.12-.02-.23-.05-.34-.08-.32-.09-.65-.16-.99-.2-.33-.04-.66-.06-1-.06-.82,0-1.46.21-1.91.62-.45.41-.68.98-.68,1.69,0,.46.11.88.32,1.23.07.12.15.23.25.34.14.16.32.31.53.44.37.24.84.45,1.44.63.66.21,1.41.36,2.24.45s1.65.14,2.47.14c1.59,0,3.01-.18,4.26-.54,1.65-.48,2.99-1.28,4.02-2.4.12-.13.24-.26.34-.41,1.4-1.77,2.17-4.45,2.32-8.04.02-.36.03-.72.03-1.1,0-.09,0-.19,0-.28v-15.43c0-.98-.19-1.7-.58-2.13ZM82.26,26.17c0,1.73-.32,3.09-.95,4.07-.08.12-.16.23-.25.33-.79,1-1.81,1.5-3.07,1.5-.25,0-.48-.02-.71-.06-.87-.17-1.58-.66-2.12-1.47-.67-1.03-1.01-2.57-1.01-4.63v-.57c0-2.06.34-3.61,1.01-4.64.67-1.03,1.62-1.55,2.82-1.55s2.28.5,3.07,1.51c.8,1.01,1.19,2.48,1.19,4.42v1.09Z"/>
        <path class="cls-3" d="M106.33,33.08c-.48,0-.9.07-1.28.21-.38.14-.8.29-1.26.43-.46.14-1.06.21-1.79.21-.1,0-.21,0-.31,0-1.28-.04-2.28-.32-3-.84-.21-.14-.39-.31-.55-.49-.77-.88-1.17-2.22-1.19-4.04v-.05h8.78c1.29,0,2.19-.31,2.71-.92.51-.61.77-1.53.77-2.75,0-3.72-.78-6.44-2.33-8.18-1.56-1.74-3.6-2.61-6.12-2.61-3,0-5.34.97-7.04,2.89-1.69,1.93-2.54,4.86-2.54,8.8v1.57c0,.33,0,.66.02.98.06,1.55.26,2.93.62,4.13.11.38.24.74.37,1.08.41,1.01.95,1.88,1.62,2.59,1.75,1.88,4.37,2.82,7.87,2.82.68,0,1.41-.05,2.19-.14.78-.09,1.56-.27,2.36-.52.42-.12.79-.27,1.1-.45.37-.2.66-.45.87-.74.32-.41.48-.92.48-1.51,0-.65-.19-1.23-.56-1.72s-.97-.75-1.8-.75ZM100.83,19.05c1.08,0,1.89.39,2.44,1.15.55.77.82,2.02.82,3.75v.64h-7.19c.03-3.7,1.34-5.55,3.93-5.55Z"/>
        <path class="cls-3" d="M122.78,33.74c-1.15-.05-1.92-.28-2.3-.7-.37-.42-.56-1.12-.56-2.11v-11.43h2.57c.98,0,1.72-.22,2.22-.67.5-.44.75-1.05.75-1.81s-.25-1.39-.76-1.85c-.51-.45-1.29-.68-2.34-.68h-2.45v-2.74c0-2.22-.94-3.33-2.83-3.33s-2.86,1.11-2.86,3.33v2.76h-1.55c-.87,0-1.55.22-2.04.67-.48.44-.73,1.06-.73,1.83s.25,1.38.74,1.81c.49.43,1.16.65,2.02.65h1.55v12.07c0,2.38.56,4.19,1.69,5.42,1.13,1.23,2.95,1.84,5.48,1.84s3.81-.9,3.81-2.71c0-1.48-.81-2.26-2.43-2.36Z"/>
      </g>
      <g>
        <path class="cls-1" d="M218.81,23.56c1.55,1.89,2.35,4.26,2.35,6.94,0,.43-.02.87-.06,1.29-.07.62-.16,1.23-.3,1.82-.14.58-.32,1.13-.55,1.67-.41,1.01-.96,1.94-1.65,2.79-.3.39-.64.74-1,1.09-2.3,2.21-5.61,3.33-9.81,3.33-1.34,0-2.5-.11-3.54-.34-.81-.17-1.56-.36-2.21-.55l-.09-.03c-.91-.28-1.75-.68-2.51-1.17-.78.52-1.67.94-2.68,1.27-1.65.58-3.52.86-5.68.86-3.31,0-6.14-.74-8.45-2.21-.06.05-.1.09-.16.14-1.57,1.24-3.68,1.87-6.27,1.87-3.92,0-6.97-1.23-9.05-3.64-.14-.16-.26-.34-.39-.51-.61,1.21-1.43,2.16-2.46,2.83-1.23.79-2.66,1.21-4.16,1.21-2.18,0-4.14-.89-5.49-2.46-.43.41-.9.79-1.38,1.12-1.91,1.28-4.08,1.93-6.46,1.93-1.76,0-3.42-.43-4.93-1.29-.07-.04-.14-.08-.21-.11-1.16.77-2.48,1.09-3.68,1.09-1.67,0-3.21-.56-4.49-1.6-1.25-1.04-2.09-2.54-2.56-4.59-.3-1.34-.45-3.09-.47-5.37l-.03-19.86c0-2.25.21-3.95.65-5.34.63-1.99,1.71-3.48,3.21-4.4,1.27-.79,2.71-1.19,4.29-1.19,2.61,0,4.87,1.21,6.18,3.32.9,1.42,1.3,3.17,1.28,5.44.34-.04.69-.06,1.04-.06,1.78,0,3.48.43,5.06,1.28-.09-.53-.16-1.09-.16-1.72,0-1.57.35-2.86.84-3.87.5-1.02,1.14-1.77,1.73-2.32.54-.5,1.12-.91,1.74-1.24,1.22-.65,2.57-.98,4.03-.98s2.82.33,4.02.98c.62.33,1.21.75,1.73,1.25,1.08,1.03,1.82,2.28,2.19,3.7,1.38-1,2.98-1.41,4.45-1.41,2.55,0,4.18,1.07,5.09,1.97.98.96,1.63,2.22,1.95,3.73,1.13.25,2.11.67,2.94,1.27.22-.15.44-.29.68-.42,2.11-1.21,4.48-1.82,7.04-1.82,2.31,0,4.48.58,6.45,1.73.81.47,1.55,1.03,2.22,1.68.44-.43.93-.84,1.47-1.19,2.28-1.5,5.18-2.26,8.62-2.26,1.08,0,2.17.08,3.23.24.88.13,1.7.32,2.45.56.27.08.53.18.78.28,1.09.42,2.07,1.03,2.92,1.82.24.21.46.44.68.68.07.08.13.15.19.24,1.11,1.37,1.7,3.04,1.7,4.85,0,2.07-.69,3.92-1.99,5.34-.12.13-.24.25-.36.36Z"/>
        <g>
          <path class="cls-2" d="M153.3,18.44c-.68-1.73-1.56-2.98-2.66-3.74-1.1-.75-2.27-1.13-3.53-1.13-1.73,0-3.09.74-4.08,2.21-.23.36-.45.61-.66.75-.21.13-.4.21-.56.21-.26,0-.45-.13-.58-.4-.13-.26-.17-.72-.12-1.38l.22-5.36c.1-1.69-.08-2.89-.54-3.63-.45-.74-1.19-1.1-2.19-1.1-.69,0-1.28.16-1.8.48-.52.32-.91.92-1.2,1.82-.28.9-.43,2.2-.43,3.91l.03,19.83c0,1.91.13,3.37.36,4.36s.55,1.66.97,2.01.91.52,1.48.52c1.07,0,1.78-.71,2.12-2.14l.04-.24c.19-.78.54-1.18,1.03-1.18.19,0,.37.07.54.2.17.13.34.4.51.78.51,1.02,1.17,1.75,1.96,2.21.8.45,1.68.68,2.62.68,1.42,0,2.71-.38,3.83-1.14,1.13-.75,2.02-2,2.68-3.72.65-1.73.98-4.05.98-6.98v-.81c0-2.93-.34-5.27-1.02-7.01ZM147.9,26.17c0,1.73-.22,2.98-.66,3.72s-1.15,1.12-2.1,1.12-1.83-.39-2.59-1.17c-.76-.77-1.14-2.07-1.14-3.89v-.28c0-1.91.35-3.24,1.04-3.98.69-.74,1.49-1.1,2.38-1.1s1.64.45,2.22,1.37c.58.9.86,2.19.86,3.83v.39Z"/>
          <path class="cls-2" d="M163.87,8.14c0,1.1-.37,1.94-1.1,2.52-.74.58-1.6.9-2.58.97-1.11.08-1.95-.18-2.55-.75-.59-.58-.9-1.39-.9-2.45,0-1.18.35-2.09,1.06-2.73.69-.65,1.55-.97,2.56-.97s1.84.31,2.51.94c.67.63,1.01,1.46,1.01,2.48Z"/>
          <path class="cls-2" d="M163.61,19.11l-.35,12.82c0,1.51-.14,2.67-.41,3.48-.27.8-.64,1.36-1.1,1.66-.46.29-.99.44-1.58.44-.94,0-1.65-.36-2.12-1.09-.47-.73-.73-1.95-.75-3.69l-.28-12.86c0-1.58.12-2.81.41-3.67.29-.86.71-1.45,1.24-1.78.54-.32,1.17-.49,1.89-.49.94,0,1.7.39,2.25,1.15.57.76.83,2.1.8,4.03Z"/>
          <path class="cls-2" d="M214.96,26.3c1,1.08,1.49,2.48,1.49,4.2,0,.99-.14,1.89-.44,2.72-.35.97-.9,1.82-1.66,2.55-1.4,1.35-3.58,2.02-6.55,2.02-.99,0-1.84-.08-2.55-.23-.71-.16-1.33-.31-1.89-.47-.89-.27-1.6-.72-2.16-1.31-.56-.59-.83-1.41-.83-2.44,0-.94.26-1.62.78-2.02.53-.4,1.17-.59,1.92-.59.59,0,1.16.13,1.68.41.53.27,1.06.54,1.58.81.53.27,1.1.41,1.72.41.73,0,1.23-.19,1.49-.56.27-.38.41-.78.41-1.23,0-.51-.15-.95-.43-1.34-.29-.38-.92-.82-1.88-1.33l-1.03-.45c-1.6-.8-2.81-1.58-3.62-2.34-.82-.75-1.37-1.53-1.65-2.32-.28-.79-.42-1.63-.42-2.53,0-2.25.75-3.87,2.25-4.86,1.51-.98,3.52-1.48,6.03-1.48.86,0,1.71.07,2.55.19.75.11,1.42.27,2.01.49.07.02.12.04.18.07.72.27,1.31.69,1.79,1.23.48.54.72,1.2.72,1.97,0,.89-.25,1.6-.74,2.15-.51.55-1.13.82-1.87.82-.19,0-.37,0-.55-.04-.57-.07-1.1-.25-1.61-.55-.67-.39-1.4-.58-2.16-.58s-1.27.13-1.63.41c-.36.26-.53.59-.53.99s.11.79.35,1.15c.23.35.73.67,1.5.94l.55.2c1.63.58,2.94,1.21,3.93,1.88.51.35.93.7,1.27,1.07Z"/>
          <path class="cls-2" d="M196.17,31.1c-.51,0-.99.1-1.43.29-.44.2-.91.4-1.42.59-.51.19-1.12.29-1.84.29-1.34,0-2.24-.25-2.74-.73-.49-.47-.74-1.15-.74-2.02,0-.94.7-1.44,2.07-1.49l4.9-.08c2.51,0,3.75-1.22,3.75-3.6s-.38-4.4-1.15-5.93c-.77-1.53-1.78-2.65-3.04-3.38-1.25-.73-2.61-1.08-4.08-1.08-1.73,0-3.31.4-4.7,1.2-1.4.8-2.51,2.02-3.33,3.66-.82,1.63-1.23,3.72-1.23,6.27v1.2c0,4.21.85,7.19,2.55,8.93,1.72,1.73,4.16,2.61,7.34,2.61,1.64,0,3.04-.21,4.19-.61,1.05-.34,1.84-.8,2.37-1.4.53-.6.79-1.27.79-2s-.18-1.34-.56-1.89c-.37-.55-.94-.82-1.71-.82ZM187.66,22.03c.05-.69.3-1.29.77-1.81.48-.53,1.2-.78,2.18-.78h.03s.09,0,.14,0h0c.82.03,1.44.29,1.86.79.44.54.67,1.29.67,2.24v.09c0,.45-.1.75-.29.91-.19.16-.54.24-1.07.22l-2.99-.15c-.48-.03-.82-.16-1.04-.39-.21-.23-.3-.6-.27-1.14Z"/>
          <path class="cls-2" d="M180.02,32.79c.41.43.62,1.03.62,1.78,0,.9-.36,1.63-1.08,2.2-.72.58-1.84.86-3.35.86-2.5,0-4.33-.67-5.49-2.01-1.15-1.34-1.65-3.41-1.49-6.21l.39-7.09c.06-.97-.04-1.61-.3-1.91-.26-.29-.75-.46-1.48-.51l-.38-.02c-1.59-.22-2.39-1.05-2.39-2.49,0-.64.19-1.16.58-1.57.39-.41,1.05-.73,1.97-.95l.26-.07c.57-.12.98-.33,1.23-.63.25-.31.43-.77.57-1.4l.13-.65c.38-1.92,1.36-2.88,2.94-2.88.77,0,1.37.21,1.79.62.42.41.67,1.11.74,2.1v.3c.04.83.2,1.42.46,1.77.27.35.76.56,1.48.63l1.05.08c.91.1,1.56.37,1.96.79.39.43.58.95.58,1.56,0,1.28-.8,2.06-2.42,2.34l-.72.08c-.84.11-1.39.37-1.63.76-.25.39-.37.97-.35,1.74l-.05,6.52c0,1.15.16,1.95.49,2.4s.92.75,1.78.91c.98.19,1.69.5,2.1.92Z"/>
        </g>
      </g>
    </g>
  </g>
</svg>