<?xml version="1.0" encoding="UTF-8"?>
<svg id="Lag_2" data-name="Lag 2" xmlns="http://www.w3.org/2000/svg" viewBox="0 0 31.66 30">
  <defs>
    <style>
      .cls-1 {
        fill: #fff;
        stroke-width: 0px;
      }
    </style>
  </defs>
  <g id="Layer_1" data-name="Layer 1">
    <g>
      <path class="cls-1" d="M30.82,13.12c-1.12-1.09-3.35-1.01-5.15-1.05-2.92-.06-5.87,0-8.79,0h-7.79c-2.18,0-5.75-.57-7.43.55C0,13.72-.14,15.42,1.14,16.63c1.1,1.04,3.07,1.51,4.98,1.54,2.29.03,4.52-.5,6.79-.57s4.74-.28,7.1-.42c2.11-.12,4.3-.37,6.41-.38,1.56,0,2.92.19,4.12-.78.95-.77,1.12-1.93.41-2.76-.04-.05-.09-.1-.13-.14Z"/>
      <path class="cls-1" d="M30.26,25.33c-.59-.5-1.45-.91-2.45-1.08-1.52-.26-3.15-.16-4.74-.06-4.75.32-9.85.33-14.56,0-1.52-.11-3.06-.23-4.58-.02s-3.03.82-3.65,1.77c-.8,1.22.17,2.67,1.79,3.36s3.72.78,5.69.62c6.8-.53,13.55-.93,20.38-1.33,3.44-.2,3.58-2.02,2.11-3.27Z"/>
      <path class="cls-1" d="M30.71,1.33c-.12-.09-.26-.19-.42-.29C29.18.34,27.61.04,26.05,0c-2.13-.04-4.21.25-6.34.22-2.65-.04-5.31.07-7.96.04-2.59-.02-5.29-.53-7.88-.08C.9.71-.7,2.94.97,4.73c2,2.15,7.09,1.18,10.25,1,5.39-.31,10.78-.62,16.17-.94,3.15-.18,5.75-1.64,3.32-3.46Z"/>
    </g>
  </g>
</svg>